<svg height="40" viewBox="0 0 39 40" width="39" xmlns="http://www.w3.org/2000/svg"><g fill="#fff" fill-rule="evenodd"><path d="m23.073 5.825a14.39 14.39 0 0 0 -3.709-.487c-1.255 0-2.47.168-3.628.47l3.677 10.299zm10.784 14.245c0-1.837-.31-3.592-.915-5.216l-6.897 18.268a14.782 14.782 0 0 0 7.812-13.053"/><path d="m26.66 7.338-4.253 11.876h-5.986l-4.268-11.927a14.726 14.726 0 0 0 -4.098 3.557l6.062 15.953 2.22-5.827h5.822l2.22 5.827 6.12-16.142a14.59 14.59 0 0 0 -3.84-3.317"/><path d="m19.365 37.194c-9.295 0-16.891-7.693-16.891-17.125 0-9.451 7.596-17.158 16.89-17.158 9.295 0 16.892 7.707 16.892 17.158 0 9.432-7.597 17.125-16.891 17.125m0-36.78c-10.655-.001-19.365 8.82-19.365 19.656 0 10.801 8.71 19.636 19.365 19.636 10.665 0 19.347-8.835 19.347-19.636 0-10.835-8.682-19.657-19.347-19.657"/><path d="m19.238 24.094-3.741 9.851-.017.306c1.238.353 2.538.53 3.885.53 1.265 0 2.492-.161 3.659-.467l-.042-.369-3.744-9.85zm-14.38-4.024c0 5.537 3.043 10.398 7.545 12.892l-6.722-17.784a14.653 14.653 0 0 0 -.823 4.891"/></g></svg>